<svg width="31" height="35" viewBox="0 0 31 35" fill="none" xmlns="http://www.w3.org/2000/svg">
<path fill-rule="evenodd" clip-rule="evenodd" d="M0.65625 0.634375C0.30625 0.984375 0.021875 1.4875 0.021875 1.72812C0 1.99063 0.109375 2.40625 0.2625 2.66875C0.39375 2.95312 0.65625 3.28125 0.853125 3.43438C1.07188 3.60938 1.96875 3.69687 3.10625 3.71875C4.83438 3.71875 5.00938 3.7625 4.9 4.09063C4.85674 4.23482 4.73745 4.68315 4.59224 5.22888C4.51715 5.51108 4.43514 5.81931 4.35313 6.125C4.1125 7.02187 3.91562 8.44375 3.91562 9.29688C3.89375 10.15 4.00312 11.2656 4.15625 11.8125C4.2875 12.3594 4.68125 13.2344 5.03125 13.7812C5.35938 14.3281 6.05937 15.1375 6.54063 15.5969C7.04375 16.0344 7.83125 16.625 8.3125 16.8875C8.79375 17.1719 9.1875 17.4344 9.1875 17.5C9.1875 17.5656 8.79375 17.8281 8.3125 18.0906C7.83125 18.375 7.04375 18.9656 6.54063 19.4031C6.05937 19.8625 5.35938 20.6719 5.03125 21.2188C4.68125 21.7656 4.2875 22.6406 4.15625 23.1875C4.00312 23.7344 3.89375 24.8719 3.91562 25.7031C3.91562 26.5344 4.1125 27.9781 4.35313 28.875C4.41328 29.0992 4.47343 29.3248 4.53085 29.5401C4.70312 30.1861 4.85078 30.7398 4.9 30.8875C5.00938 31.2375 4.83438 31.2812 3.10625 31.2812C1.96875 31.3031 1.07188 31.3906 0.853125 31.5656C0.65625 31.7188 0.39375 32.0469 0.2625 32.3094C0.109375 32.5938 0 33.0094 0 33.25C0 33.4906 0.30625 33.9719 0.65625 34.3438L1.3125 35H28.9187C29.9031 33.9719 30.1875 33.4906 30.1875 33.25C30.1875 33.0094 30.0781 32.5938 29.925 32.3094C29.7938 32.0469 29.5312 31.7188 29.3344 31.5656C29.1156 31.3906 28.2188 31.3031 27.0594 31.2812C25.3531 31.2812 25.1781 31.2375 25.2875 30.8875C25.3367 30.7398 25.4844 30.1861 25.6567 29.5401C25.7141 29.3248 25.7742 29.0992 25.8344 28.875C26.075 27.9781 26.2719 26.5344 26.2719 25.7031C26.2938 24.8719 26.1844 23.7344 26.0312 23.1875C25.9 22.6406 25.5063 21.7656 25.1562 21.2188C24.8281 20.6719 24.1281 19.8625 23.6469 19.4031C23.1437 18.9656 22.3562 18.375 21.875 18.0906C21.3938 17.8281 21 17.5656 21 17.5C21 17.4344 21.3938 17.1719 21.875 16.8875C22.3562 16.625 23.1437 16.0344 23.6469 15.575C24.1281 15.1375 24.8281 14.3281 25.1562 13.7812C25.5063 13.2344 25.9 12.3594 26.0312 11.8125C26.1844 11.2656 26.2938 10.1281 26.2719 9.29688C26.2719 8.44375 26.075 7.02187 25.8344 6.125C25.7524 5.81933 25.6704 5.51111 25.5953 5.22894C25.4501 4.68318 25.3308 4.23482 25.2875 4.09063C25.1781 3.7625 25.3531 3.71875 27.125 3.71875C29.05 3.71875 29.1156 3.69687 29.6406 3.0625C29.9469 2.69062 30.1875 2.16562 30.1875 1.85938C30.1875 1.55312 29.9031 1.02812 29.5312 0.65625L28.875 0H1.26875L0.65625 0.634375ZM12.2605 23.5176C11.7462 23.796 11.1399 24.1241 10.5219 24.4562C8.81565 25.3968 7.83127 26.0749 7.74377 26.3593C7.67815 26.5999 7.83127 27.4968 8.09377 28.3281C8.35627 29.1812 8.72815 30.0343 8.92502 30.2531C9.27502 30.6031 9.8219 30.6468 15.0938 30.6468C20.3656 30.6468 20.9125 30.6031 21.2625 30.2531C21.4594 30.0343 21.8313 29.1593 22.0938 28.3281C22.3563 27.4968 22.5094 26.5999 22.4438 26.3593C22.3781 26.0968 21.35 25.3749 19.7531 24.4562C18.3313 23.6468 16.9094 22.8812 16.5594 22.7718C16.2313 22.6406 15.5531 22.5312 15.0281 22.5531C14.525 22.5531 13.8906 22.6624 13.65 22.7718C13.4982 22.8477 12.9659 23.1358 12.2605 23.5176Z" fill="#2E66E5"/>
</svg>
