<svg width="21" height="20" viewBox="0 0 21 20" fill="none" xmlns="http://www.w3.org/2000/svg">
<path d="M3.45075 0.278584C3.63647 0.192356 3.95485 0.0994942 4.14721 0.0663295C4.33293 0.0331647 4.62478 0.00663295 4.7906 0C4.95643 0 5.30134 0.0397977 5.55339 0.0928613C5.80545 0.152558 6.19679 0.278584 6.41568 0.378078C6.62793 0.477572 6.93305 0.643396 7.0856 0.756156C7.23816 0.862283 7.70247 1.26689 8.12034 1.6516C8.53159 2.03632 9.15508 2.62002 9.5 2.95166C9.84491 3.27668 10.2164 3.61496 10.3291 3.69455C10.4485 3.78078 10.621 3.84711 10.7603 3.84711C10.8995 3.84711 11.072 3.78741 11.1914 3.69455C11.3042 3.61496 11.8812 3.08432 12.4848 2.51389C13.0884 1.95009 13.765 1.31332 13.9971 1.10107C14.2426 0.875549 14.6273 0.616864 14.9523 0.457674C15.2574 0.305116 15.7416 0.139292 16.0335 0.0795954C16.4712 -0.00663295 16.6636 -0.0132659 17.1279 0.0464306C17.4595 0.0862283 17.8575 0.185723 18.0897 0.29185C18.3086 0.391344 18.6535 0.5837 18.8525 0.722991C19.0514 0.862283 19.3698 1.13423 19.5622 1.33322C19.7479 1.52558 20.0265 1.87712 20.1724 2.11591C20.325 2.3547 20.4908 2.67971 20.5439 2.84554C20.6036 3.01136 20.6765 3.33637 20.7097 3.57516C20.7428 3.82058 20.7428 4.21856 20.7097 4.50377C20.6831 4.79562 20.5704 5.20687 20.451 5.49872C20.3382 5.77067 20.1459 6.13548 20.0331 6.3013C19.9137 6.46713 19.1775 7.28961 18.4014 8.12536C17.6121 8.97438 16.9753 9.71727 16.9554 9.81013C16.9355 9.90299 16.9355 10.0622 16.9554 10.1749C16.982 10.3142 17.3932 10.8051 18.4014 11.8929C19.1775 12.722 19.9137 13.5445 20.0331 13.7169C20.1525 13.8828 20.3382 14.2476 20.451 14.5195C20.577 14.8246 20.6765 15.2226 20.7163 15.5476C20.7495 15.8726 20.7495 16.2375 20.7097 16.4895C20.6699 16.7217 20.5837 17.0666 20.5107 17.2523C20.4377 17.4447 20.2785 17.7498 20.1658 17.9355C20.0464 18.1146 19.7877 18.4396 19.5821 18.6585C19.3831 18.8707 19.0514 19.156 18.8525 19.2952C18.6535 19.4345 18.3086 19.6269 18.0897 19.7198C17.8708 19.8193 17.4662 19.932 17.1942 19.9652C16.8559 20.0116 16.5442 20.0116 16.2192 19.9652C15.9539 19.9254 15.5492 19.8193 15.3237 19.7264C15.0916 19.6335 14.7865 19.4876 14.6405 19.4014C14.4946 19.3151 13.9441 18.8508 13.4134 18.36C12.8828 17.8758 12.4119 17.4447 12.3654 17.4049C12.319 17.3717 12.0404 17.0997 11.7353 16.8013C11.4169 16.4895 11.1118 16.2441 10.9924 16.2176C10.8797 16.191 10.6873 16.191 10.5613 16.2176C10.3954 16.2507 10.1633 16.4232 9.77195 16.8013C9.46683 17.0997 8.9561 17.5773 8.64435 17.8758C8.3326 18.1676 7.91472 18.5524 7.72237 18.7381C7.52338 18.9172 7.2249 19.1626 7.05907 19.282C6.88662 19.4014 6.52844 19.5871 6.26975 19.6932C6.00443 19.806 5.55339 19.9254 5.27481 19.9585C4.92326 20.005 4.60488 20.005 4.27987 19.9585C4.01455 19.9254 3.63647 19.8259 3.45075 19.7397C3.25839 19.6534 2.92011 19.4611 2.70123 19.3151C2.48234 19.1626 2.15069 18.884 1.95834 18.685C1.77261 18.4927 1.49403 18.1411 1.3481 17.9023C1.19555 17.6635 1.01646 17.2921 0.950127 17.0732C0.877165 16.8543 0.804202 16.5227 0.784303 16.3436C0.764404 16.1645 0.771037 15.7798 0.810835 15.4946C0.844 15.216 0.963393 14.7649 1.07615 14.5063C1.18228 14.2409 1.368 13.8828 1.4874 13.7169C1.60679 13.5445 2.34305 12.722 3.1191 11.8929C3.90842 11.0372 4.54519 10.301 4.56508 10.2081C4.58498 10.1152 4.58498 9.95606 4.56508 9.8433C4.53855 9.704 4.12731 9.21317 3.1191 8.12536C2.34305 7.29624 1.60679 6.47376 1.4874 6.3013C1.368 6.13548 1.18228 5.77067 1.06952 5.49872C0.943494 5.1936 0.844 4.79562 0.804202 4.47061C0.771037 4.16549 0.771037 3.77415 0.804202 3.542C0.837367 3.32311 0.916962 3.01136 0.976659 2.84554C1.03636 2.67971 1.17565 2.38123 1.29504 2.18224C1.4078 1.98325 1.68638 1.62507 1.90527 1.39292C2.12416 1.16077 2.48234 0.849018 2.70123 0.703093C2.92011 0.557168 3.25839 0.364812 3.45075 0.278584Z" fill="#CBC8C8"/>
</svg>
