<svg width="25" height="31" viewBox="0 0 25 31" fill="none" xmlns="http://www.w3.org/2000/svg">
<path d="M1.29743 0.301729C1.48922 0.211473 1.78255 0.0873714 1.97435 0.0422435C2.16614 -0.00288443 2.51588 -0.0141664 2.76408 0.0196795C3.01229 0.0535255 4.10664 0.516087 5.18971 1.0689C6.27278 1.61044 7.62662 2.30992 8.17943 2.61453C8.73225 2.93043 9.55584 3.37043 9.98455 3.60735C10.4133 3.84427 11.7897 4.64529 13.0307 5.3899C14.2717 6.13451 15.9189 7.17245 16.6973 7.69143C17.4758 8.22168 18.5701 9.00014 19.123 9.41757C19.6758 9.835 20.567 10.5683 21.0973 11.0309C21.6276 11.4935 22.2593 12.114 22.5188 12.4186C22.7783 12.7232 23.1619 13.2647 23.3988 13.6257C23.6245 13.9755 23.8839 14.5622 23.9742 14.9232C24.0983 15.397 24.1096 15.6904 24.0306 16.0514C23.9629 16.3109 23.8275 16.717 23.7034 16.9539C23.5906 17.1796 23.1732 17.7775 22.7783 18.2626C22.3834 18.7591 21.6276 19.5375 21.0973 20.0001C20.567 20.4626 19.6306 21.2298 19.0101 21.6924C18.3896 22.1549 17.0922 23.0575 16.1332 23.6893C15.1743 24.3323 13.6512 25.28 12.7486 25.8103C11.8461 26.3405 10.9097 26.9272 10.6615 27.119C10.4133 27.3108 10.1087 27.4687 9.98455 27.4687C9.86045 27.4687 9.58968 27.6041 9.38661 27.7508C9.19481 27.9087 8.99174 28.0328 8.94661 28.0328C8.8902 28.0328 8.37123 28.2923 7.78456 28.6082C7.1979 28.9241 5.90047 29.5898 4.90766 30.0974C3.30562 30.8985 3.03485 31 2.48204 31C2.14358 31 1.73742 30.9436 1.57948 30.8533C1.42153 30.7744 1.1282 30.5826 0.91384 30.4133C0.699483 30.2554 0.406151 29.8718 0 28.9918V15.5098C0 2.18582 0.011282 2.01659 0.236922 1.52018C0.361023 1.23813 0.575381 0.888392 0.710765 0.753008C0.846148 0.606342 1.10563 0.403267 1.29743 0.301729Z" fill="#3B81EB"/>
</svg>
