<svg width="73" height="102" viewBox="0 0 73 102" fill="none" xmlns="http://www.w3.org/2000/svg">
<path d="M72.414 53.386C72.414 80.2347 56.2036 102 36.207 102C16.2104 102 0 80.2347 0 53.386C0 26.5372 16.2104 0 36.207 0C56.2036 0 72.414 26.5372 72.414 53.386Z" fill="white"/>
<path d="M71.914 53.386C71.914 66.7134 67.89 78.7597 61.4082 87.4626C54.9265 96.1655 46.0111 101.5 36.207 101.5C26.4029 101.5 17.4876 96.1655 11.0058 87.4626C4.524 78.7597 0.5 66.7134 0.5 53.386C0.5 40.055 4.52628 26.8046 11.0229 16.8989C17.526 6.98331 26.4434 0.5 36.207 0.5C45.9707 0.5 54.888 6.98331 61.3911 16.8989C67.8877 26.8046 71.914 40.055 71.914 53.386Z" fill="white" stroke="#DEDEDE"/>
<path d="M36.1464 40.502C36.1464 47.0248 32.9509 54.0424 26.0657 54.0424C19.1806 54.0424 8.11133 47.0248 8.11133 40.502C8.11133 33.9793 16.7946 21.5933 23.6797 21.5933C30.5649 21.5933 36.1464 33.9793 36.1464 40.502Z" fill="#84A7EA"/>
<path d="M52.7006 90.5466C49.4449 93.8023 44.1313 94.9583 40.7038 91.5308C37.2764 88.1034 38.9648 82.0123 42.2205 78.7565C45.4763 75.5008 49.9299 75.4499 53.3573 78.8773C56.7848 82.3048 55.9563 87.2909 52.7006 90.5466Z" fill="#5B7CBA"/>
<path d="M46.4084 61.3545C44.804 65.0337 41.5797 67.9781 38.8917 66.806C36.2038 65.6338 36.3942 60.4854 37.9986 56.8063C39.603 53.1272 42.4393 51.3349 45.1272 52.507C47.8151 53.6792 48.0128 57.6754 46.4084 61.3545Z" fill="#97BAF1"/>
<path d="M57.8498 29.1313C56.0541 32.2415 51.724 33.8617 47.5262 31.4382C43.3285 29.0146 42.7778 23.7421 44.5734 20.6319C46.3691 17.5217 50.3074 16.9267 54.5052 19.3503C58.7029 21.7739 59.6455 26.0211 57.8498 29.1313Z" fill="#D4E2F8"/>
<path d="M65.3996 82.151C69.8099 74.0962 72.4152 64.1495 72.4152 53.3857C72.4152 47.2108 71.5578 41.3048 69.9941 35.8706C59.6309 39.5393 52.2538 48.9884 52.2538 60.0664C52.2538 69.4245 57.5181 77.6202 65.3996 82.151Z" fill="#98C1FF"/>
<path d="M0.078125 56.58C1.19422 79.6827 14.3296 98.3869 31.173 101.533C34.0304 93.2612 33.2281 83.1844 28.1906 74.1556C21.9042 62.8885 10.7652 56.3767 0.078125 56.58Z" fill="#98C1FF"/>
<path d="M72.2493 52.983C74.091 71.1163 60.916 102 36.266 102C16.2365 102 7.08265 82.5913 5.24099 78.7663C0.0570002 67.9997 16.2365 91.0914 36.266 91.0914C56.2955 91.0914 72.2493 47.9116 72.2493 52.983Z" fill="#E7E7E7" style="mix-blend-mode:multiply"/>
</svg>
