<svg width="32" height="33" viewBox="0 0 32 33" fill="none" xmlns="http://www.w3.org/2000/svg">
<path fill-rule="evenodd" clip-rule="evenodd" d="M14.0692 0.0671332C13.9188 0.110098 13.6074 0.249736 13.371 0.36789C13.1347 0.496786 12.7588 0.765319 12.5332 0.980145C12.3184 1.19497 12.0176 1.5924 11.878 1.88242C11.7384 2.16169 11.4591 2.84913 11.2443 3.40768L10.8468 4.42811L8.18299 6.01782C5.49766 5.59891 5.10023 5.56669 4.63836 5.66336C4.3376 5.71706 3.88646 5.86744 3.65015 5.9856C3.41385 6.10375 3.04864 6.36154 2.83381 6.55489C2.61899 6.73749 2.18934 7.32826 1.8671 7.86533C1.5556 8.40239 1.17965 9.10058 1.02927 9.42282C0.803707 9.90618 0.75 10.1747 0.75 10.8729C0.75 11.5389 0.803707 11.8504 0.99705 12.2693C1.13669 12.57 1.64153 13.3004 2.12489 13.9127L3.00568 15.0083V18.0159C1.65227 19.7237 1.15817 20.4112 1.04002 20.6475C0.889637 20.9482 0.803707 21.3564 0.771483 21.9902C0.728517 22.8172 0.75 22.9676 1.00779 23.5476C1.16891 23.9021 1.5556 24.6325 1.8671 25.1588C2.18934 25.6852 2.61899 26.2867 2.83381 26.48C3.04864 26.6626 3.4031 26.9097 3.62867 27.0278C3.8435 27.1352 4.29463 27.2856 4.61687 27.3501C5.07875 27.4467 5.43321 27.436 6.22807 27.3178C6.78662 27.2319 7.44184 27.1245 7.67815 27.0815C8.07558 27.0171 8.21521 27.0815 9.48269 27.8012L10.8576 28.5961C11.5343 30.3469 11.8243 31.0343 11.9317 31.2599C12.0391 31.4747 12.3184 31.8292 12.544 32.044C12.7588 32.2589 13.1777 32.5596 13.4785 32.7207C14.0048 32.9893 14.0585 33 16.0027 33C17.9468 33 18.0005 32.9893 18.5269 32.71C18.8276 32.5596 19.2465 32.2481 19.4721 32.0118C19.7084 31.7862 19.977 31.4318 20.0844 31.2277C20.1918 31.0236 20.4818 30.3254 20.7396 29.6917C21.094 28.8109 21.2767 28.4886 21.4807 28.3812C21.5559 28.3436 21.6526 28.2926 21.7493 28.2416C21.8459 28.1906 21.9426 28.1396 22.0178 28.102C22.1682 28.016 22.6515 27.7368 23.0919 27.479L23.8975 27.0063C25.6484 27.3071 26.4432 27.393 26.7977 27.393C27.1844 27.393 27.6785 27.3071 28.0329 27.1675C28.3552 27.0386 28.8385 26.7593 29.0963 26.5337C29.3649 26.2974 29.816 25.7066 30.1382 25.1588C30.4497 24.6325 30.8364 23.9021 30.9975 23.5476C31.2553 22.9676 31.2768 22.8172 31.2338 21.9902C31.2016 21.3564 31.1157 20.9482 30.9653 20.6475C30.8472 20.4112 30.3531 19.7237 29.8697 19.1222L28.9997 18.0159V15.0083C30.3531 13.3004 30.8472 12.613 30.9653 12.3767C31.1157 12.0759 31.2016 11.6678 31.2338 11.034C31.2768 10.2069 31.2553 10.0566 30.9975 9.47652C30.8364 9.12206 30.4497 8.40239 30.1382 7.86533C29.816 7.32826 29.3863 6.73749 29.1715 6.55489C28.9567 6.36154 28.5915 6.10375 28.3552 5.9856C28.1189 5.86744 27.6677 5.71706 27.3562 5.66336C26.9051 5.56669 26.5184 5.58817 25.3476 5.78151L23.8975 6.00708L21.1478 4.42811C20.5462 2.84913 20.267 2.16169 20.1273 1.87167C19.9877 1.5924 19.6869 1.19497 19.4614 0.980145C19.2465 0.765319 18.8169 0.464562 18.5269 0.314183C18.0113 0.0349093 17.9039 0.024168 16.1638 0.00268533C15.1648 -0.00805598 14.2196 0.0134266 14.0692 0.0671332ZM14.8211 11.7428C14.4989 11.8287 13.9511 12.0651 13.5966 12.2477C13.2529 12.441 12.7373 12.8492 12.4473 13.1607C12.1573 13.4614 11.7813 14.02 11.5987 14.3959C11.4269 14.7611 11.2228 15.3734 11.1476 15.7601C11.0509 16.2971 11.0509 16.6409 11.1476 17.2101C11.212 17.6291 11.4161 18.2628 11.5987 18.6387C11.7706 19.0039 12.1788 19.5732 12.4903 19.9062C12.834 20.2714 13.3173 20.6366 13.747 20.8515C14.1337 21.0448 14.8104 21.2704 15.2508 21.3456C15.9167 21.4637 16.1853 21.4637 16.8083 21.3456C17.2164 21.2704 17.8717 21.0448 18.2583 20.8515C18.645 20.6581 19.1821 20.2607 19.4614 19.9814C19.7406 19.7021 20.1273 19.1543 20.3314 18.7676C20.5355 18.381 20.7611 17.7257 20.8363 17.3176C20.9437 16.7268 20.9544 16.4045 20.8577 15.8138C20.7825 15.4056 20.5892 14.7719 20.4281 14.4174C20.267 14.0629 19.9125 13.5366 19.6547 13.2466C19.3862 12.9566 18.9565 12.5806 18.688 12.398C18.4195 12.2154 17.9361 11.9791 17.6139 11.8717C17.2916 11.7643 16.6579 11.6461 16.2175 11.6247C15.6804 11.5817 15.2185 11.6247 14.8211 11.7428Z" fill="#4F85EB"/>
</svg>
