<svg width="13" height="14" viewBox="0 0 13 14" fill="none" xmlns="http://www.w3.org/2000/svg">
<path d="M7.54504 1.29211C7.54781 1.25894 7.54922 1.22539 7.54922 1.1915C7.54922 0.533453 7.01577 0 6.35772 0C5.69968 0 5.16622 0.533453 5.16622 1.1915C5.16622 1.23173 5.16822 1.2715 5.17211 1.31071C2.22661 1.88668 0.00390625 4.48169 0.00390625 7.59583C0.00390625 11.1328 2.87122 14.0001 6.40822 14.0001C9.94522 14.0001 12.8125 11.1328 12.8125 7.59583C12.8125 4.44679 10.5397 1.82859 7.54504 1.29211Z" fill="#2E66E5"/>
<path d="M11.1316 7.59699C11.1316 10.2018 9.02 12.3133 6.41523 12.3133C3.81046 12.3133 1.69887 10.2018 1.69887 7.59699C1.69887 4.99221 3.81046 2.88063 6.41523 2.88063C9.02 2.88063 11.1316 4.99221 11.1316 7.59699Z" fill="white"/>
<path d="M6.6139 5.05438C6.49705 4.85199 6.20492 4.85199 6.08807 5.05438L4.42003 7.94351C4.30318 8.1459 4.44924 8.39889 4.68295 8.39889H5.86916L5.87869 10.9338C5.87969 11.1985 6.0951 11.4123 6.35984 11.4113C6.62458 11.4103 6.83839 11.1949 6.83739 10.9302L6.82787 8.39889H8.01903C8.25273 8.39889 8.39879 8.1459 8.28194 7.94351L6.6139 5.05438Z" fill="#2E66E5"/>
</svg>
