<svg width="79" height="122" viewBox="0 0 79 122" fill="none" xmlns="http://www.w3.org/2000/svg">
<path d="M9.71911 101.973C9.08257 102.065 8.54425 102.013 8.10415 101.817C7.66098 101.6 7.33279 101.279 7.11958 100.855C6.92452 100.407 6.8506 99.8974 6.89783 99.3273C6.96628 98.7541 7.18326 98.1593 7.54876 97.5429L16.9301 80.6799L17.1472 82.1758L6.67619 83.6957C5.976 83.7973 5.40877 83.6955 4.97449 83.3902C4.56143 83.0819 4.30716 82.5988 4.21168 81.9411C4.11621 81.2833 4.22418 80.7585 4.53561 80.3667C4.86517 79.9505 5.38005 79.6917 6.08024 79.59L18.8746 77.7329C19.5324 77.6374 20.0723 77.6999 20.4942 77.9203C20.9343 78.1164 21.261 78.4264 21.4742 78.8504C21.6874 79.2744 21.7613 79.7837 21.6959 80.3781C21.6275 80.9513 21.4105 81.5461 21.045 82.1625L11.659 98.9937L11.4465 97.5296L22.4268 95.9358C23.127 95.8342 23.6836 95.9375 24.0967 96.2459C24.5279 96.5299 24.7912 97.0008 24.8867 97.6586C24.9852 98.3375 24.8697 98.8851 24.5402 99.3012C24.2287 99.6931 23.7229 99.9398 23.0227 100.041L9.71911 101.973Z" fill="#4D83EC"/>
<path opacity="0.5" d="M30.2713 72.1923C29.6364 72.0897 29.1383 71.8789 28.7772 71.5599C28.4196 71.2198 28.2026 70.8155 28.1262 70.3471C28.0745 69.8609 28.1566 69.3529 28.3725 68.8232C28.6096 68.2968 28.9948 67.7944 29.5283 67.3159L43.5321 54.0395L43.2909 55.5316L32.8457 53.8436C32.1472 53.7307 31.6365 53.4636 31.3137 53.0422C31.012 52.6243 30.9142 52.0872 31.0203 51.4311C31.1263 50.7749 31.3866 50.3066 31.8011 50.0261C32.2403 49.7279 32.8091 49.6352 33.5075 49.7481L46.2704 51.8106C46.9266 51.9167 47.4229 52.138 47.7594 52.4748C48.1205 52.7937 48.3392 53.1874 48.4155 53.6559C48.4919 54.1243 48.4098 54.6323 48.1693 55.1798C47.9322 55.7061 47.5469 56.2086 47.0135 56.687L33.0148 69.9317L33.2509 68.4713L44.2041 70.2414C44.9026 70.3543 45.4026 70.6197 45.7043 71.0377C46.0305 71.4379 46.1407 71.9661 46.0346 72.6222C45.9252 73.2995 45.6509 73.7873 45.2117 74.0855C44.7972 74.366 44.2407 74.4498 43.5422 74.337L30.2713 72.1923Z" fill="#4D83EC"/>
</svg>
