<svg width="22" height="20" viewBox="0 0 22 20" fill="none" xmlns="http://www.w3.org/2000/svg">
<path d="M5.95858 3.39824C5.88458 3.1641 5.78638 2.9043 5.67303 2.63231C2.54385 4.14157 0.349886 6.93932 0.0381903 10.2019C0.165412 12.1291 3.88175 6.91463 5.90276 3.7889C5.94482 3.72385 5.96585 3.69133 5.97839 3.65282C5.98935 3.61916 5.99492 3.57788 5.99328 3.54254C5.99141 3.50211 5.98047 3.46749 5.95858 3.39824Z" fill="#4D83EC"/>
<path fill-rule="evenodd" clip-rule="evenodd" d="M4.60533 0.434551C4.95371 1.08105 5.36819 1.90081 5.67303 2.63231C2.54385 4.14157 0.349886 6.93932 0.0381903 10.2019C0.032971 10.1228 0.0337924 10.0317 0.0410192 9.92797C0.209403 7.51077 2.37864 2.98976 3.75854 0.435793C3.88914 0.194062 3.95445 0.0731938 4.04807 0.0292316C4.13118 -0.00979644 4.2341 -0.00974018 4.31717 0.0293787C4.41074 0.0734433 4.47561 0.193813 4.60533 0.434551ZM22 11.0048C22 16.2886 17.0751 20 11 20C4.92487 20 0 16.2886 0 11.0048C0 10.7344 0.0128987 10.4666 0.0381903 10.2019C0.165412 12.1291 3.88175 6.91463 5.90276 3.7889C5.94482 3.72385 5.96585 3.69133 5.97839 3.65282C5.98935 3.61916 5.99492 3.57788 5.99328 3.54254C5.99141 3.50211 5.98047 3.46749 5.95858 3.39824C5.88458 3.1641 5.78638 2.9043 5.67303 2.63231C7.25128 1.87109 9.06744 1.43764 11 1.43764C13.2743 1.43764 15.3875 2.03797 17.1414 3.06637C17.1097 3.14504 17.0803 3.22158 17.0534 3.29552C17.0305 3.3587 17.0191 3.39029 17.0151 3.42759C17.0115 3.46027 17.0139 3.49867 17.0213 3.5307C17.0298 3.56724 17.0459 3.59913 17.0782 3.66288L17.0782 3.66293L17.0782 3.66295C17.1914 3.88656 17.3117 4.12512 17.4376 4.37482C19.1794 7.8294 21.9955 13.4148 22 11.0048ZM21.9999 10.9719C22 10.9828 22 10.9938 22 11.0048C22 10.9939 22 10.9829 21.9999 10.9719ZM21.9999 10.9589C21.9967 10.3788 21.9342 9.81091 21.8174 9.25955C21.9301 9.91276 21.9965 10.4939 21.9999 10.9589ZM21.8174 9.25955C21.3567 6.58968 20.1231 2.71542 19.2644 0.638606C19.1523 0.367304 19.0962 0.231651 19.0033 0.178417C18.9209 0.131251 18.8142 0.124238 18.7264 0.16021C18.6272 0.200811 18.5538 0.32753 18.407 0.58097C17.9727 1.331 17.4498 2.30017 17.1414 3.06637C19.5439 4.4751 21.2722 6.68708 21.8174 9.25955Z" fill="#4D83EC"/>
<path d="M17.0534 3.29552C17.0305 3.3587 17.0191 3.39029 17.0151 3.42759C17.0115 3.46027 17.0139 3.49867 17.0213 3.5307C17.0298 3.56724 17.0459 3.59913 17.0782 3.66288L17.0782 3.66293L17.0782 3.66295C17.1914 3.88656 17.3117 4.12512 17.4376 4.37482C19.1794 7.8294 21.9955 13.4148 22 11.0048C22 10.9938 22 10.9828 21.9999 10.9719C21.9999 10.9676 21.9999 10.9633 21.9999 10.9589C21.9965 10.4939 21.9301 9.91276 21.8174 9.25955C21.2722 6.68708 19.5439 4.4751 17.1414 3.06637C17.1097 3.14504 17.0803 3.22158 17.0534 3.29552Z" fill="#4D83EC"/>
<mask id="mask0_483_6387" style="mask-type:alpha" maskUnits="userSpaceOnUse" x="2" y="3" width="18" height="16">
<ellipse cx="10.9921" cy="10.7583" rx="8.48571" ry="7.28847" fill="white"/>
</mask>
<g mask="url(#mask0_483_6387)">
<ellipse cx="10.9921" cy="10.7583" rx="8.48571" ry="7.28847" fill="#E9EEFF"/>
<ellipse cx="10.4068" cy="10.2557" rx="7.90049" ry="6.78582" fill="white"/>
</g>
<path d="M11.0605 3.8811V4.88398" stroke="#B8C7FF" stroke-width="0.584924" stroke-linecap="round"/>
<path d="M11 16.4672V17.47" stroke="#B8C7FF" stroke-width="0.584924" stroke-linecap="round"/>
<path d="M2.73633 11.0024H3.80354" stroke="#B8C7FF" stroke-width="0.584924" stroke-linecap="round"/>
<path d="M18.104 11.0044H19.1712" stroke="#B8C7FF" stroke-width="0.584924" stroke-linecap="round"/>
<path d="M8.72771 10.363C8.67478 10.871 8.51001 11.327 8.26614 11.6403C8.02227 11.9536 7.71715 12.1013 7.41142 12.0541C7.10569 12.0068 6.82173 11.7681 6.61597 11.3853C6.41022 11.0025 6.29772 10.5037 6.30084 9.988C6.30397 9.47228 6.42248 8.97741 6.63284 8.60173C6.84319 8.22606 7.12998 7.99708 7.43622 7.96031C7.74246 7.92353 8.04572 8.08165 8.28575 8.40324C8.52578 8.72483 8.68499 9.18634 8.73175 9.69607L7.5234 10.0089L8.72771 10.363Z" fill="#4D83EC"/>
<path d="M15.6945 10.363C15.6416 10.871 15.4768 11.327 15.2329 11.6403C14.9891 11.9536 14.6839 12.1013 14.3782 12.0541C14.0725 12.0068 13.7885 11.7681 13.5828 11.3853C13.377 11.0025 13.2645 10.5037 13.2676 9.988C13.2708 9.47228 13.3893 8.97741 13.5996 8.60173C13.81 8.22606 14.0968 7.99708 14.403 7.96031C14.7093 7.92353 15.0125 8.08165 15.2525 8.40324C15.4926 8.72483 15.6518 9.18634 15.6986 9.69607L14.4902 10.0089L15.6945 10.363Z" fill="#4D83EC"/>
<path d="M10.7994 11.1735L10.6778 11.07C10.4706 10.8937 10.5953 10.5548 10.8673 10.5548H11.1105C11.3826 10.5548 11.5073 10.8937 11.3001 11.07L11.1785 11.1735C11.0692 11.2664 10.9087 11.2664 10.7994 11.1735Z" fill="#4D83EC"/>
</svg>
